<?xml version="1.0" encoding="utf-8"?>
<!-- Generator: Adobe Illustrator 25.4.1, SVG Export Plug-In . SVG Version: 6.00 Build 0)  -->
<svg version="1.1" id="Capa_1" xmlns="http://www.w3.org/2000/svg" xmlns:xlink="http://www.w3.org/1999/xlink" x="0px" y="0px"
	 viewBox="0 0 640 512" style="enable-background:new 0 0 640 512;" xml:space="preserve">
<style type="text/css">
	.st0{fill:#4C2A85;}
</style>
<path class="st0" d="M524.5,69.8c-0.2-0.3-0.5-0.6-0.8-0.7c-38.1-17.5-78.3-30-119.6-37.1c-0.8-0.1-1.5,0.2-1.9,0.9
	c-5.5,9.9-10.5,20.2-14.9,30.6c-44.5-6.8-89.9-6.8-134.4,0c-4.5-10.5-9.5-20.7-15.1-30.6c-0.4-0.7-1.1-1-1.9-0.9
	c-41.4,7.1-81.6,19.6-119.8,37.1c-0.3,0.1-0.6,0.4-0.8,0.7C39.1,183.7,18.2,294.7,28.4,404.4c0.1,0.6,0.3,1.1,0.8,1.4
	c44.4,32.8,94,57.9,146.8,74.1c0.8,0.2,1.6,0,2.1-0.7c11.3-15.4,21.4-31.7,30-48.8c0.5-0.9,0.1-2.1-0.9-2.5c0,0-0.1,0-0.1-0.1
	c-15.9-6.1-31.2-13.4-45.9-21.9c-0.9-0.5-1.2-1.7-0.6-2.6c0.1-0.2,0.3-0.4,0.4-0.5c3.1-2.3,6.2-4.7,9.1-7.1c0.5-0.5,1.3-0.6,1.9-0.3
	c96.2,43.9,200.4,43.9,295.5,0c0.6-0.3,1.4-0.2,1.9,0.2c2.9,2.4,6,4.9,9.1,7.2c0.8,0.7,0.9,1.9,0.3,2.7c-0.1,0.2-0.3,0.3-0.5,0.4
	c-14.7,8.5-30,15.8-45.9,21.8c-1,0.4-1.4,1.5-1.1,2.5c0,0,0,0.1,0.1,0.1c8.8,17,18.8,33.3,30,48.8c0.5,0.7,1.3,0.9,2.1,0.7
	c52.9-16.1,102.7-41.2,147.2-74.1c0.5-0.3,0.8-0.8,0.8-1.4C623.7,277.6,590.9,167.5,524.5,69.8z M222.5,337.6
	c-29,0-52.8-26.6-52.8-59.2s23.4-59.3,52.8-59.3c29.7,0,53.3,26.8,52.8,59.2C275.3,311,251.9,337.6,222.5,337.6z M417.9,337.6
	c-29,0-52.8-26.6-52.8-59.2s23.3-59.3,52.8-59.3c29.7,0,53.3,26.8,52.8,59.2C470.7,311,447.5,337.6,417.9,337.6z"/>
</svg>
